<?xml version="1.0" ?>
<svg xmlns="http://www.w3.org/2000/svg" width="144.47644" height="131.90175" viewBox="0 0 {vd_node.attributes['android:viewportWidth'].value} {vd_node.attributes['android:viewportHeight'].value}">
  <path d="M69.511,129.449C61.827,122.218 54.834,115.956 42.398,105.172 30.004,94.424 26.941,91.692 22.356,87.292 6.833,72.396 1.169,60.956 0.12,42.379c-0.514,-9.1 0.6,-15.58 3.797,-22.088 1.888,-3.844 4.157,-6.934 7.377,-10.048 5.672,-5.484 12.877,-8.884 21.043,-9.928 14.384,-1.84 28.132,4.456 37.371,17.113 0.631,0.865 1.436,2.035 1.788,2.6 0.352,0.565 0.688,1.01 0.747,0.989 0.058,-0.022 0.653,-0.859 1.322,-1.862 6.03,-9.038 14.585,-15.428 23.945,-17.886 10.726,-2.817 22.335,-0.846 31.235,5.302 2.518,1.739 5.761,4.754 7.663,7.124 3.134,3.905 5.68,9.106 6.903,14.102 1.039,4.245 1.371,8.887 1.041,14.583 -0.919,15.898 -5.09,26.139 -15.453,37.942 -0.75,0.854 -2.853,3.044 -4.674,4.866 -4.746,4.748 -8.237,7.917 -19.109,17.344 -15.074,13.07 -22.184,19.417 -30.151,26.917 -1.433,1.349 -2.661,2.453 -2.728,2.453 -0.067,0 -1.294,-1.104 -2.728,-2.452z" fill="#ea5555" stroke-width="0.135026"/>
  <path d="m65.594,109.228c-4.295,-0.586 -8.623,-1.968 -13.004,-4.154 -7.999,-3.99 -15.12,-11.333 -18.841,-19.427 -2.637,-5.736 -3.83,-11.267 -3.836,-17.782 -0.005,-6.71 1.389,-12.613 4.388,-18.569 7.534,-14.964 23.697,-24.117 40.132,-22.725 1.819,0.154 4.259,0.483 5.423,0.732 5.92,1.264 12.203,4.177 16.846,7.812 7.793,6.1 13.255,14.88 15.232,24.489 2.331,11.33 -0.017,22.751 -6.634,32.259 -6.773,9.732 -17.345,16.038 -29.316,17.485 -2.655,0.321 -7.582,0.265 -10.39,-0.118zM74.752,101.116c11.569,-1.234 21.371,-8.163 26.55,-18.766l1.076,-2.204 -0.566,-0.434c-1.865,-1.428 -6.289,-3.105 -10.204,-3.866 -7.436,-1.446 -17.668,0.792 -21.705,4.746 -0.968,0.949 -1.483,1.666 -1.659,2.315 -0.162,0.597 -0.256,4.086 -0.257,9.561 -0.001,8.013 0.028,8.629 0.41,8.728 0.78,0.204 4.079,0.161 6.356,-0.082zM61.404,91.419c0,-9.035 0.097,-9.909 1.359,-12.242 0.89,-1.646 2.817,-3.661 4.785,-5.004l1.667,-1.137 -1.496,-0.296c-2.388,-0.473 -7.82,-0.631 -10.454,-0.304 -6.767,0.84 -13.294,3.233 -16.482,6.044l-0.758,0.668 0.758,1.771c2.993,6.992 8.085,12.649 14.784,16.424 1.444,0.814 5.066,2.361 5.542,2.368 0.23,0.004 0.294,-1.809 0.294,-8.291zM88.317,68.604c1.641,-0.437 2.427,-0.887 3.614,-2.067 2.211,-2.199 2.975,-5.63 1.902,-8.544 -0.694,-1.886 -2.839,-4.033 -4.674,-4.68 -3.11,-1.097 -6.521,-0.262 -8.709,2.132 -1.602,1.752 -2.199,3.414 -2.068,5.754 0.131,2.34 0.917,3.985 2.674,5.591 2.036,1.861 4.643,2.513 7.262,1.815zM63.881,65.502c4.857,-1.265 8.037,-6.086 7.207,-10.928 -0.926,-5.399 -5.932,-9.101 -11.143,-8.241 -5.346,0.883 -9.062,5.91 -8.206,11.099 0.974,5.898 6.466,9.548 12.142,8.07z" fill="#ffffff" stroke-width="0.235053"/>
</svg>
